<?xml version="1.0" encoding="UTF-8" standalone="no"?>
<!-- Created with Inkscape (http://www.inkscape.org/) -->

<svg
   version="1.1"
   id="svg1"
   width="687.06"
   height="687.06"
   viewBox="0 0 687.05999 687.06"
   sodipodi:docname="icon.svg"
   inkscape:version="1.4.2 (ebf0e940d0, 2025-05-08)"
   inkscape:export-filename="icon.png"
   inkscape:export-xdpi="110.28"
   inkscape:export-ydpi="110.28"
   xmlns:inkscape="http://www.inkscape.org/namespaces/inkscape"
   xmlns:sodipodi="http://sodipodi.sourceforge.net/DTD/sodipodi-0.dtd"
   xmlns="http://www.w3.org/2000/svg"
   xmlns:svg="http://www.w3.org/2000/svg">
  <defs
     id="defs1" />
  <sodipodi:namedview
     id="namedview1"
     pagecolor="#505050"
     bordercolor="#eeeeee"
     borderopacity="1"
     inkscape:showpageshadow="0"
     inkscape:pageopacity="0"
     inkscape:pagecheckerboard="0"
     inkscape:deskcolor="#505050"
     inkscape:zoom="0.65112503"
     inkscape:cx="354.00267"
     inkscape:cy="375.50392"
     inkscape:window-width="1536"
     inkscape:window-height="888"
     inkscape:window-x="0"
     inkscape:window-y="0"
     inkscape:window-maximized="1"
     inkscape:current-layer="g1" />
  <g
     inkscape:groupmode="layer"
     inkscape:label="Image"
     id="g1"
     transform="translate(-139.08533,-19.340352)">
    <path
       fill="currentColor"
       style="display:inline;fill-opacity:1;stroke:#ffffff;stroke-width:15.4738;stroke-linecap:round;stroke-miterlimit:4;stroke-dasharray:none;stroke-opacity:1;paint-order:markers fill stroke"
       d="m 486.83056,687.33175 c 7.61023,-17.99521 9.6613,-25.41565 10.88862,-39.39355 1.03325,-11.76766 2.32884,-16.37591 7.45877,-26.52997 14.99047,-29.67176 15.41089,-39.48529 16.50215,-41.70162 2.93479,-5.96048 -0.41134,-42.81314 -2.80261,-43.73075 -2.32841,-0.8935 -6.09314,1.98559 -14.50672,11.09403 -11.36667,12.30541 -13.40367,16.21632 -14.81625,28.44608 -1.21286,10.50068 -3.12381,16.59354 -7.70984,24.58192 -10.94407,19.06346 -13.42478,26.63574 -14.05379,42.89895 -0.50556,13.07133 0.83106,22.59881 4.98065,35.50221 4.418,13.73804 5.90525,16.63439 8.54153,16.63439 2.0769,0 2.42814,-0.49664 5.51749,-7.80169 z M 369.25152,642.81947 c 16.88804,-9.27638 30.94583,-27.29963 37.48158,-48.05449 5.38486,-17.10006 6.89964,-33.34699 5.89873,-63.2675 -0.96717,-28.913 -3.29087,-43.03337 -11.07699,-67.31126 -7.70447,-24.02333 -8.60212,-40.4739 -3.15021,-57.7322 1.0606,-3.35745 8.09967,-18.54965 15.64234,-33.76046 23.20156,-46.78903 22.15768,-42.30893 21.36139,-91.67906 -0.54595,-33.84904 -0.54595,-33.84904 -3.09168,-33.84904 -2.4214,0 -26.86107,3.0034 -27.07583,3.32735 -0.0563,0.0848 -0.51297,11.6436 -1.01492,25.68612 -1.54158,43.12589 -3.62224,52.26651 -18.75614,82.39825 -22.20268,44.20576 -26.09625,71.01734 -15.3702,105.841 11.35837,36.87655 14.25297,59.98739 12.5814,100.45098 -0.67544,16.35046 -0.67544,16.35046 -8.04772,30.9477 -9.22666,18.26899 -12.28072,29.31783 -12.28072,44.4286 0,6.36794 -0.005,6.36616 6.89897,2.57401 z m 230.4662,-12.86962 c -0.29805,-16.55995 -0.86571,-18.56822 -8.50365,-30.08378 -9.4895,-14.30714 -10.68434,-19.85908 -10.66875,-49.57393 0.0206,-39.26454 1.41071,-50.83882 8.91078,-74.19092 14.75809,-45.95049 13.49499,-68.11903 -6.11218,-107.27521 -17.39355,-34.73547 -22.236,-54.24711 -23.75902,-95.73184 -0.45286,-12.33489 -0.90637,-22.51006 -1.00781,-22.6115 -0.55099,-0.55099 -19.46397,-1.82462 -24.07795,-1.62146 -5.41585,0.23847 -5.41585,0.23847 -5.41585,38.14941 0,47.04976 -1.62293,40.0381 18.85573,81.46426 19.87023,40.19537 22.33743,47.64193 21.57069,65.10525 -0.37222,8.47806 -0.67481,9.80699 -5.82363,25.57709 -8.64038,26.46429 -11.31201,40.83547 -12.53388,67.42212 -1.15079,25.03999 0.29107,47.74557 3.94529,62.12841 4.24852,16.7219 15.94157,36.12247 27.53561,45.68576 4.33638,3.57686 14.82907,9.6482 16.71063,9.66922 0.34547,0.004 0.51377,-6.34694 0.37399,-14.11288 z m -148.12322,-40.275 c 11.11933,-28.09385 25.23978,-50.35879 44.9213,-70.8313 24.04622,-25.01264 32.43258,-39.88161 35.19143,-62.39425 2.91383,-23.7773 -1.30722,-43.5048 -15.72679,-73.5008 -7.55258,-15.71109 -13.46048,-33.07791 -16.37013,-48.12143 -1.10027,-5.68873 -2.39676,-45.05108 -2.57567,-78.1999 -0.0596,-11.04113 -0.0596,-11.04113 -15.72687,-10.83169 -15.66727,0.20944 -15.66727,0.20944 -16.20103,36.95983 -0.70396,48.46806 -1.779,58.44527 -8.44664,78.39105 -3.99801,11.95974 -7.81217,18.18026 -9.97507,21.80214 -3.64099,6.09697 -14.53471,34.0888 -16.29789,49.22191 -2.366,20.30711 1.9402,46.34137 10.75652,65.03116 4.27707,9.06702 6.39417,11.42227 10.79823,12.01299 3.08786,0.41417 3.08786,0.41417 9.33025,-7.12323 9.04228,-10.91814 10.25929,-15.89491 6.14747,-25.13918 -12.0138,-27.00965 -10.03106,-46.0116 8.49611,-81.42417 3.99739,-7.64053 5.35958,-9.64166 6.05665,-8.89746 2.25489,2.40734 12.83191,24.22902 15.35399,31.67713 7.48335,22.09955 6.95477,34.94191 -2.20945,53.67996 -6.26559,12.81126 -9.20608,16.67883 -23.77432,31.27009 -17.09075,17.11773 -25.39367,29.42041 -28.97963,42.93993 -1.93236,7.28533 -2.3586,25.73391 -0.7751,33.5488 1.5959,7.87611 4.95397,17.12807 6.21675,17.12807 0.51719,0 2.22263,-3.23985 3.78989,-7.19965 z M 340.07928,572.08382 c 5.97023,-1.65811 16.99075,-13.34406 21.50565,-22.80418 3.95187,-8.28039 4.91053,-14.32191 4.97008,-31.32179 0.0844,-24.06503 -3.64918,-38.76554 -16.36632,-64.44215 -11.67827,-23.57913 -14.13053,-33.2043 -14.13495,-55.48019 -0.005,-24.08228 1.86013,-31.33191 13.23526,-51.45057 19.23747,-34.02436 25.44262,-54.11284 25.44262,-82.36775 0,-7.76742 0,-7.76742 -3.28818,-7.74088 -1.80851,0.0146 -8.8588,1.33896 -15.66729,2.94305 -12.37908,2.91652 -12.37908,2.91652 -13.26654,15.64075 -1.44079,20.65782 -3.34488,26.46191 -14.97688,45.65304 -13.52668,22.3171 -20.67541,42.00244 -23.17404,63.81409 -2.91882,25.47945 2.29452,51.55515 15.50768,77.56532 13.60699,26.78544 15.38473,36.91855 15.40001,87.78011 0.006,17.89673 0.22208,23.0164 0.97404,23.01304 0.53192,-0.002 2.2594,-0.36322 3.83886,-0.80189 z m 288.69954,-5.18991 c 0.7521,-9.47724 1.31131,-22.72173 2.04989,-48.54921 0.82591,-28.88175 1.34137,-31.55063 9.39723,-48.65729 19.08733,-40.53205 23.06941,-66.5893 15.70592,-102.77385 -3.0676,-15.07433 -6.9665,-24.8074 -16.1445,-40.30252 -11.77724,-19.88338 -15.87802,-32.66066 -17.13646,-53.394 -0.50581,-8.3334 -0.70134,-9.20678 -2.18737,-9.77041 -4.65409,-1.76521 -21.54945,-6.18013 -25.42294,-6.64326 -4.44874,-0.5319 -4.44874,-0.5319 -4.42175,15.99822 0.0394,24.07763 1.9204,32.0001 12.00773,50.57258 20.85501,38.39753 24.70889,50.34215 24.71315,76.59556 0.004,22.70635 -1.8842,30.27886 -13.69513,54.93218 -11.48928,23.98192 -14.34561,34.40173 -15.08119,55.01589 -1.08869,30.50945 6.50439,50.28993 23.05924,60.07088 6.59706,3.89768 6.60142,3.8958 7.15618,-3.09477 z M 293.72676,264.96039 c 1.9708,-4.08255 2.61243,-4.61998 15.80425,-13.23747 34.36409,-22.44818 38.72413,-23.89246 93.05355,-30.82425 13.40422,-1.71022 29.07149,-3.46222 34.81616,-3.89332 45.44345,-3.41031 92.54167,0.3595 117.27203,3.11536 63.94569,7.12595 105.36904,22.72016 115.57815,43.51053 2.30069,4.68525 4.63293,13.54718 4.66001,17.70683 0.0398,6.10371 3.80287,6.29757 8.73729,0.45013 4.92426,-5.83538 11.17299,-15.29564 12.70842,-19.23989 1.65092,-4.24096 2.44886,-50.89551 1.05022,-61.40565 -2.92592,-21.98692 -15.39921,-56.39264 -26.91523,-74.24171 -32.49301,-50.361958 -86.44006,-84.331642 -149.5321,-94.158211 -22.15927,-3.451302 -60.1838,-2.50379 -85.87987,2.139988 -58.63772,10.596975 -110.4587,43.787628 -137.98159,88.375373 -15.17933,24.5909 -25.42697,51.1831 -28.76084,74.63325 -1.89277,13.31359 -1.58912,49.54065 0.48474,57.83085 3.13604,12.53627 9.48885,23.23137 17.82625,30.01089 4.13779,3.3646 4.13779,3.3646 4.58107,-6.5764 0.38512,-8.63636 0.71288,-10.49945 2.49749,-14.1963 z m 272.49378,-79.66628 c -11.28054,-1.30712 -21.31641,-7.21955 -25.21023,-14.85204 -2.43462,-4.77226 -2.08754,-5.49461 3.92331,-8.16533 7.8419,-3.48431 20.79574,-11.38449 27.68753,-16.88585 6.97606,-5.56865 9.70379,-7.08933 13.92813,-7.76483 6.63906,-1.06163 15.74874,2.60889 17.98485,7.24655 2.94237,6.10244 2.13989,17.85876 -1.71238,25.08635 -6.46335,12.1265 -18.99175,17.37564 -36.60121,15.33515 z m -188.78099,-1.37647 c -11.96135,-4.28487 -19.72916,-15.84707 -19.72916,-29.36644 0,-10.35902 7.1081,-17.25009 17.79337,-17.25009 3.97555,0 6.4166,1.38222 16.21305,9.18045 9.38832,7.47331 18.78055,13.35549 25.59233,16.028 5.21835,2.04737 5.39142,2.20071 5.39142,4.77745 0,5.99642 -5.92232,12.32137 -14.84392,15.85312 -5.9033,2.33692 -24.72121,2.81792 -30.41709,0.77751 z"
       id="path3"
       inkscape:label="path3"
       sodipodi:nodetypes="ssssssssssssssssssssssssssssssssssssssssssssssssssssssssssssssssssssssssssssssssssccssssssssssscsssssssssssssssssssssssssssssssssssssss"
       inkscape:export-filename="icon.png"
       inkscape:export-xdpi="53.225006"
       inkscape:export-ydpi="53.225006" />
  </g>
</svg>
