<?xml version="1.0" encoding="UTF-8" standalone="no"?>
<!-- Created with Inkscape (http://www.inkscape.org/) -->

<svg
   version="1.1"
   id="svg1"
   width="445.70532"
   height="687.05969"
   viewBox="0 0 445.70532 687.05969"
   sodipodi:docname="406662615-2d2b0014-0786-4d5b-a1f7-1f0fdf005f54.svg"
   inkscape:version="1.4 (e7c3feb100, 2024-10-09)"
   inkscape:export-filename="406662615-2d2b0014-0786-4d5b-a1f7-1f0fdf005f54_.png"
   inkscape:export-xdpi="110.28"
   inkscape:export-ydpi="110.28"
   xmlns:inkscape="http://www.inkscape.org/namespaces/inkscape"
   xmlns:sodipodi="http://sodipodi.sourceforge.net/DTD/sodipodi-0.dtd"
   xmlns="http://www.w3.org/2000/svg"
   xmlns:svg="http://www.w3.org/2000/svg">
  <defs
     id="defs1" />
  <sodipodi:namedview
     id="namedview1"
     pagecolor="#505050"
     bordercolor="#eeeeee"
     borderopacity="1"
     inkscape:showpageshadow="0"
     inkscape:pageopacity="0"
     inkscape:pagecheckerboard="0"
     inkscape:deskcolor="#505050"
     inkscape:zoom="0.62008123"
     inkscape:cx="120.14555"
     inkscape:cy="270.1259"
     inkscape:window-width="1536"
     inkscape:window-height="888"
     inkscape:window-x="0"
     inkscape:window-y="0"
     inkscape:window-maximized="1"
     inkscape:current-layer="g1" />
  <g
     inkscape:groupmode="layer"
     inkscape:label="Image"
     id="g1"
     transform="translate(-139.08533,-19.340352)">
    <path
       fill="currentColor"
       style="display:inline;fill-opacity:1;stroke:none;stroke-opacity:1"
       d="m 366.31058,698.33305 c 7.86901,-18.60709 9.98981,-26.27986 11.25887,-40.73303 1.06839,-12.16779 2.40803,-16.93274 7.71238,-27.43206 15.50018,-30.68066 15.9349,-40.82789 17.06327,-43.11958 3.03458,-6.16315 -0.42533,-44.26889 -2.89791,-45.2177 -2.40758,-0.92388 -6.30032,2.0531 -14.99999,11.47126 -11.75315,12.72382 -13.85942,16.76771 -15.32003,29.41331 -1.2541,10.85774 -3.23003,17.15776 -7.97199,25.41777 -11.31621,19.71166 -13.88126,27.54142 -14.53166,44.35762 -0.52275,13.51578 0.85932,23.36723 5.15001,36.70938 4.56823,14.20516 6.10604,17.2 8.83196,17.2 2.14753,0 2.51071,-0.51354 5.70509,-8.06697 z M 244.73357,652.30724 c 17.46227,-9.5918 31.99806,-28.22789 38.75605,-49.68847 5.56795,-17.6815 7.13423,-34.48086 6.09931,-65.41875 -1.00007,-29.89611 -3.40279,-44.4966 -11.45365,-69.6 -7.96645,-24.84019 -8.89461,-41.85011 -3.25733,-59.69524 1.09668,-3.47161 8.37508,-19.18039 16.17422,-34.9084 23.99047,-48.37998 22.9111,-43.74754 22.08773,-94.79637 -0.56451,-35 -0.56451,-35 -3.1968,-35 -2.50373,0 -27.77442,3.10552 -27.99648,3.44049 -0.0582,0.0877 -0.53041,12.03951 -1.04943,26.55951 -1.59399,44.59228 -3.7454,54.0437 -19.39389,85.2 -22.95762,45.70886 -26.98359,73.4321 -15.89283,109.43985 11.74458,38.13044 14.73761,62.02711 13.0092,103.86657 -0.69841,16.90641 -0.69841,16.90641 -8.32136,32 -9.54039,18.89018 -12.6983,30.31471 -12.6983,45.93927 0,6.58447 -0.005,6.58263 7.13356,2.66154 z m 238.30262,-13.30722 c -0.30818,-17.12303 -0.89515,-19.19958 -8.7928,-31.10671 -9.81216,-14.79361 -11.04762,-20.53433 -11.03151,-51.25956 0.0213,-40.59963 1.45869,-52.56747 9.21378,-76.71359 15.25989,-47.51293 13.95385,-70.43526 -6.32002,-110.92284 -17.98497,-35.91657 -22.99208,-56.09165 -24.56689,-98.98696 -0.46825,-12.7543 -0.93718,-23.27546 -1.04207,-23.38035 -0.56972,-0.56972 -20.12579,-1.88666 -24.89667,-1.67659 -5.6,0.24659 -5.6,0.24659 -5.6,39.44659 0,48.64957 -1.6781,41.39949 19.49689,84.23425 20.54586,41.56211 23.09694,49.26187 22.30414,67.31899 -0.38489,8.76632 -0.69776,10.14045 -6.02165,26.44677 -8.93418,27.36414 -11.69664,42.22397 -12.96006,69.71464 -1.18992,25.8914 0.30096,49.36903 4.07944,64.24092 4.39297,17.2905 16.48361,37.35072 28.47188,47.2392 4.48383,3.69847 15.3333,9.97626 17.27884,9.99799 0.35721,0.004 0.53123,-6.56275 0.3867,-14.59275 z M 329.87641,597.35557 c 11.49742,-29.04912 26.09799,-52.07111 46.44874,-73.23974 24.86385,-25.86313 33.53536,-41.23769 36.38802,-64.51581 3.01291,-24.58579 -1.35166,-44.98407 -16.26153,-76.00001 -7.80939,-16.24531 -13.91818,-34.20264 -16.92676,-49.75768 -1.13769,-5.88216 -2.47826,-46.58293 -2.66325,-80.85889 -0.0616,-11.41656 -0.0616,-11.41656 -16.26162,-11.2 -16.2,0.21657 -16.2,0.21657 -16.75191,38.21657 -0.72789,50.11609 -1.83949,60.43255 -8.73384,81.05653 -4.13395,12.36641 -8.0778,18.79844 -10.31425,22.54347 -3.76479,6.30428 -15.02893,35.24791 -16.85205,50.89558 -2.44646,20.99761 2.00617,47.91709 11.12226,67.24238 4.42251,9.37532 6.61159,11.81066 11.16539,12.42146 3.19287,0.42825 3.19287,0.42825 9.64751,-7.36543 9.34974,-11.28939 10.60813,-16.43538 6.35649,-25.99398 -12.4223,-27.92805 -10.37214,-47.57611 8.78501,-84.19279 4.13331,-7.90033 5.54182,-9.9695 6.26259,-9.2 2.33156,2.48919 13.26823,25.05286 15.87606,32.75423 7.73781,22.85099 7.19125,36.13002 -2.28457,55.50521 -6.47864,13.24688 -9.51911,17.24596 -24.58271,32.33335 -17.67188,17.69978 -26.25713,30.42078 -29.965,44.4 -1.99808,7.53305 -2.43881,26.60892 -0.80147,34.68954 1.65017,8.14391 5.12242,17.71046 6.42815,17.71046 0.53476,0 2.29819,-3.35 3.91874,-7.44445 z M 214.5694,579.16641 c 6.17324,-1.7145 17.56848,-13.79779 22.2369,-23.57958 4.08624,-8.56194 5.07749,-14.8089 5.13907,-32.38681 0.0872,-24.88331 -3.77326,-40.08367 -16.92281,-66.63335 -12.07537,-24.38088 -14.61101,-34.33333 -14.61558,-57.36666 -0.005,-24.90113 1.92338,-32.39726 13.6853,-53.2 19.89159,-35.18127 26.30773,-55.95282 26.30773,-85.16847 0,-8.03153 0,-8.03153 -3.4,-8.00409 -1.87,0.0151 -9.16,1.38449 -16.2,3.04312 -12.8,3.01569 -12.8,3.01569 -13.71764,16.17257 -1.48979,21.36024 -3.45861,27.36169 -15.48613,47.20537 -13.98662,23.07593 -21.37842,43.43062 -23.96202,65.98392 -3.01806,26.34582 2.37254,53.30816 16.03498,80.20274 14.06966,27.69621 15.90785,38.17388 15.92365,90.76485 0.006,18.50525 0.22963,23.79901 1.00716,23.79554 0.55,-0.002 2.33622,-0.37557 3.96939,-0.82915 z m 298.51604,-5.36639 c 0.77767,-9.79949 1.3559,-23.49432 2.11959,-50.2 0.854,-29.8638 1.38698,-32.62344 9.71676,-50.31176 19.73635,-41.91024 23.85383,-68.85349 16.23996,-106.26841 -3.1719,-15.5869 -7.20337,-25.65092 -16.69345,-41.67291 -12.1777,-20.55947 -16.41792,-33.7712 -17.71915,-55.20954 -0.523,-8.61675 -0.72518,-9.51983 -2.26174,-10.10262 -4.81234,-1.82523 -22.28219,-6.39027 -26.28739,-6.86914 -4.6,-0.54999 -4.6,-0.54999 -4.57209,16.54219 0.0407,24.89633 1.98569,33.08819 12.41603,52.29218 21.56412,39.70313 25.54904,52.05391 25.55345,79.2 0.004,23.47842 -1.94827,31.30842 -14.1608,56.80001 -11.87994,24.79736 -14.83339,35.57147 -15.59399,56.88657 -1.12571,31.54683 6.72556,51.9999 23.84331,62.11343 6.82138,4.03021 6.82589,4.02827 7.39951,-3.2 z M 166.64078,261.60001 c 2.03781,-4.22137 2.70126,-4.77707 16.34163,-13.68758 35.53255,-23.21147 40.04085,-24.70485 96.2176,-31.87235 13.86,-1.76837 30.06,-3.57994 36,-4.0257 46.98865,-3.52626 95.68832,0.37172 121.25957,3.2213 66.12,7.36824 108.95185,23.4927 119.5081,44.98999 2.37891,4.84455 4.79046,14.00782 4.81845,18.30891 0.0411,6.31124 3.93218,6.5117 9.03439,0.46543 5.0917,-6.0338 11.55289,-15.81573 13.14053,-19.8941 1.70706,-4.38515 2.53213,-52.62608 1.08593,-63.49359 C 581.02158,172.8778 568.12417,137.3022 556.21656,118.8462 522.61872,66.771816 466.83734,31.647078 401.60001,21.48638 c -22.91274,-3.568654 -62.2302,-2.588925 -88.8,2.212754 -60.63154,10.957299 -114.21456,45.276515 -142.67331,91.380366 -15.69547,25.42704 -26.29155,52.92344 -29.73878,77.17096 -1.95713,13.76629 -1.64315,51.22515 0.50122,59.79724 3.24268,12.96254 9.8115,24.0213 18.43239,31.03133 4.27848,3.47901 4.27848,3.47901 4.73684,-6.8 0.3982,-8.93002 0.73711,-10.85647 2.58241,-14.67902 z m 281.75924,-82.37512 c -11.6641,-1.35157 -22.04122,-7.46503 -26.06743,-15.35706 -2.51741,-4.93452 -2.15853,-5.68143 4.0567,-8.44297 8.10855,-3.60278 21.50286,-11.77159 28.62898,-17.46001 7.21327,-5.75799 10.03374,-7.33038 14.40172,-8.02885 6.86481,-1.09773 16.28424,2.6976 18.59639,7.49296 3.04241,6.30992 2.21264,18.466 -1.77061,25.93934 -6.68313,12.53884 -19.63752,17.96646 -37.84575,15.85659 z m -195.20001,-1.42328 c -12.36807,-4.43056 -20.4,-16.38591 -20.4,-30.36497 0,-10.71125 7.3498,-17.83664 18.39839,-17.83664 4.11072,0 6.63478,1.42922 16.76434,9.4926 9.70754,7.72743 19.41912,13.80962 26.46252,16.573 5.3958,2.11698 5.57475,2.27554 5.57475,4.93989 0,6.20031 -6.12369,12.74033 -15.34865,16.39217 -6.10402,2.41637 -25.56179,2.91374 -31.45135,0.80395 z"
       id="path3"
       inkscape:label="path3"
       sodipodi:nodetypes="ssssssssssssssssssssssssssssssssssssssssssssssssssssssssssssssssssssssssssssssssssccssssssssssscsssssssssssssssssssssssssssssssssssssss" />
  </g>
</svg>
